<?xml version="1.0"?><svg width="640" height="480" xmlns="http://www.w3.org/2000/svg">
 <title>purple Divider modified</title>

 <metadata id="metadata15">image/svg+xml</metadata>
 <g>
  <title>Layer 1</title>
  <path id="path2383" d="m202.473175,226.542969c10.358292,-4.132584 7.114578,-10.200623 -1.739288,-11.951279c-15.61937,-3.198105 -32.691681,3.476639 -24.867325,10.117569c7.808823,6.835709 27.356567,11.614319 53.968216,12.980759c57.733185,2.875519 171.92868,-14.841934 244.350281,-20.263489c53.799316,-4.027481 86.663208,2.024368 104.396179,8.72702c-36.446594,-7.277939 -69.664856,-4.746674 -103.851257,-2.959747c-78.439087,4.100006 -159.574097,21.507629 -245.548004,18.769516c-40.139099,-1.69046 -68.263153,-12.926819 -65.95047,-21.737701c0.205444,-0.782974 0.651245,-1.546814 1.350433,-2.283127c5.283691,-5.221649 14.567276,-7.363251 22.791489,-7.998428c22.355713,-1.726715 44.50148,9.759842 15.099747,16.598907z" stroke-width="1px" fill-rule="evenodd" fill="#7f00ff"/>
  <path id="path2479" d="m556.518982,242.199997c-14.247009,7.630997 -9.786011,18.836014 2.392029,22.069016c21.484009,5.905975 44.96698,-6.420013 34.205017,-18.683014c-10.741028,-12.623001 -37.628052,-21.446991 -74.232056,-23.970001c-79.409973,-5.309998 -236.481964,27.406998 -336.095978,37.417999c-73.998993,7.437012 -119.201996,-3.737991 -143.592896,-16.11499c50.130898,13.438995 95.820908,8.764999 142.843903,5.464996c107.889984,-7.570999 219.489014,-39.714996 337.742981,-34.658997c55.210022,3.120987 93.894043,23.869995 90.713013,40.139999c-0.28302,1.445999 -0.895996,2.856979 -1.857971,4.215988c-7.267029,9.643005 -20.037048,13.597015 -31.348999,14.77002c-30.749023,3.188995 -61.210022,-18.022018 -20.769043,-30.651016l0,0z" stroke-width="1px" fill-rule="evenodd" fill="#3f007f"/>
 </g>
</svg>